{"title":"StarTalk.with.Neil.DeGrasse.Tyson.S01E09.Charles.Bolden-NASA.108","uid":12045952,"size":1748936808,"categoryP":"video","categoryS":"hd___tv_shows","magnet":"?xt=urn:btih:605f3d2a15beebd3bc27f26ed215e6284e3ac540&amp;dn=StarTalk.with.Neil.DeGrasse.Tyson.S01E09.Charles.Bolden-NASA.108&amp;tr=udp%3A%2F%2Ftracker.openbittorrent.com%3A80&amp;tr=udp%3A%2F%2Fopen.demonii.com%3A1337&amp;tr=udp%3A%2F%2Ftracker.coppersurfer.tk%3A6969&amp;tr=udp%3A%2F%2Fexodus.desync.com%3A6969","seeders":1,"leechers":0,"uploader":"orangebirds","files":1,"time":1434899310,"description":"StarTalk.with.Neil.DeGrasse.Tyson.S01E09.Charles.Bolden-NASA.1080p.WEB-DL.DD5.1.H.264-NTb\n\nAudio in AC3 5.1\nCC available\n\nPlease help me seed!\n\nGeneral\nUnique ID                                : 186010934778968957962199382549976208361 (0x8BF06726407CD2779CD945770BA653E9)\nComplete name                            : StarTalk.with.Neil.DeGrasse.Tyson.S01E09.Charles.Bolden-NASA.1080p.WEB-DL.DD5.1.H.264-NTb.mkv\nFormat                                   : Matroska\nFormat version                           : Version 4 / Version 2\nFile size                                : 1.63 GiB\nDuration                                 : 41mn 52s\nOverall bit rate                         : 5 569 Kbps\nEncoded date                             : UTC 2015-06-18 14:51:28\nWriting application                      : mkvmerge v7.9.0 ('Birds') 64bit\nWriting library                          : libebml v1.3.1 + libmatroska v1.4.2\nDURATION                                 : 00:41:20.142000000\nNUMBER_OF_FRAMES                         : 1166\nNUMBER_OF_BYTES                          : 60669\n_STATISTICS_WRITING_APP                  : mkvmerge v7.9.0 ('Birds') 64bit\n_STATISTICS_WRITING_DATE_UTC             : 2015-06-18 14:51:28\n_STATISTICS_TAGS                         : BPS DURATION NUMBER_OF_FRAMES NUMBER_OF_BYTES\n\nVideo\nID                                       : 1\nFormat                                   : AVC\nFormat/Info                              : Advanced Video Codec\nFormat profile                           : &lt;a class=&quot;__cf_email__&quot; href=&quot;/cdn-cgi/l/email-protection&quot; data-cfemail=&quot;bff7d6d8d7fff38b918f&quot;&gt;[email&amp;#160;protected]&lt;/a&gt;&lt;script data-cfhash='f9e31' type=&quot;text/javascript&quot;&gt;\n/* &lt;![CDATA[ */!function(){try{var t=&quot;currentScript&quot;in document?document.currentScript:function(){for(var t=document.getElementsByTagName(&quot;script&quot;),e=t.length;e--;)if(t[e].getAttribute(&quot;data-cfhash&quot;))return t[e]}();if(t&amp;&amp;t.previousSibling){var e,r,n,i,c=t.previousSibling,a=c.getAttribute(&quot;data-cfemail&quot;);if(a){for(e=&quot;&quot;,r=parseInt(a.substr(0,2),16),n=2;a.length-n;n+=2)i=parseInt(a.substr(n,2),16)^r,e+=String.fromCharCode(i);e=document.createTextNode(e),c.parentNode.replaceChild(e,c)}t.parentNode.removeChild(t);}}catch(u){}}()/* ]]&gt; */&lt;/script&gt;\nFormat settings, CABAC                   : Yes\nFormat settings, ReFrames                : 5 frames\nCodec ID                                 : V_MPEG4/ISO/AVC\nDuration                                 : 41mn 52s\nBit rate                                 : 5 074 Kbps\nWidth                                    : 1 440 pixels\nHeight                                   : 1 080 pixels\nDisplay aspect ratio                     : 16:9\nFrame rate mode                          : Constant\nFrame rate                               : 29.970 fps\nColor space                              : YUV\nChroma subsampling                       : 4:2:0\nBit depth                                : 8 bits\nScan type                                : Progressive\nBits/(Pixel*Frame)                       : 0.109\nStream size                              : 1.48 GiB (91%)\nLanguage                                 : English\nDefault                                  : Yes\nForced                                   : No\nColor primaries                          : BT.709\nTransfer characteristics                 : BT.709\nMatrix coefficients                      : BT.709\n\nAudio\nID                                       : 2\nFormat                                   : AC-3\nFormat/Info                              : Audio Coding 3\nMode extension                           : CM (complete main)\nFormat settings, Endianness              : Big\nCodec ID                                 : A_AC3\nDuration                                 : 41mn 52s\nBit rate mode                            : Constant\nBit rate                                 : 384 Kbps\nChannel(s)                               : 6 channels\nChannel positions                        : Front: L C R, Side: L R, LFE\nSampling rate                            : 48.0 KHz\nBit depth                                : 16 bits\nCompression mode                         : Lossy\nStream size                              : 115 MiB (7%)\nLanguage                                 : English\nDefault                                  : Yes\nForced                                   : No\n\nText\nID                                       : 3\nFormat                                   : UTF-8\nCodec ID                                 : S_TEXT/UTF8\nCodec ID/Info                            : UTF-8 Plain Text\nLanguage                                 : English\nDefault                                  : Yes\nForced                                   : No","torrent":{"xt":"urn:btih:605f3d2a15beebd3bc27f26ed215e6284e3ac540","amp;dn":"StarTalk.with.Neil.DeGrasse.Tyson.S01E09.Charles.Bolden-NASA.108","amp;tr":["udp%3A%2F%2Ftracker.openbittorrent.com%3A80","udp%3A%2F%2Fopen.demonii.com%3A1337","udp%3A%2F%2Ftracker.coppersurfer.tk%3A6969","udp%3A%2F%2Fexodus.desync.com%3A6969"],"infoHash":"605f3d2a15beebd3bc27f26ed215e6284e3ac540","infoHashBuffer":{"type":"Buffer","data":[96,95,61,42,21,190,235,211,188,39,242,110,210,21,230,40,78,58,197,64]},"announce":[],"urlList":[]}}